<svg xmlns="http://www.w3.org/2000/svg" width="1637" height="407" viewBox="0 0 1637 407">
<defs>
<linearGradient id="bg" x1="0" y1="0" x2="1" y2="1"><stop offset="0" stop-color="#ffffff"/><stop offset="1" stop-color="#f5f8ff"/></linearGradient>
<linearGradient id="name" x1="0" x2="1"><stop offset="0" stop-color="#2563eb"/><stop offset=".55" stop-color="#4f46e5"/><stop offset="1" stop-color="#7c3aed"/></linearGradient>
<pattern id="dots" width="32" height="32" patternUnits="userSpaceOnUse"><circle cx="3" cy="3" r="2" fill="#6b9df2" opacity=".14"/></pattern>
</defs>
<rect width="1637" height="407" rx="18" fill="url(#bg)"/>
<rect width="1637" height="407" fill="url(#dots)"/>
<circle cx="112" cy="72" r="218" fill="#e5efff" opacity=".72"/>
<circle cx="1545" cy="290" r="205" fill="#e7ecff" opacity=".72"/>
<path d="M0 354 C180 310 390 382 610 342 S1010 302 1225 340 S1450 374 1637 335 L1637 407 L0 407Z" fill="#eaf2ff" opacity=".8"/>
<path d="M0 355 C190 316 370 375 605 348 S1000 300 1220 330 S1460 365 1637 345" fill="none" stroke="#9eb8f4" stroke-width="4" opacity=".8"/>
<path d="M590 194 Q820 236 1058 194" fill="none" stroke="#5b9bf2" stroke-width="5" stroke-linecap="round"/>
<circle cx="1433" cy="77" r="7" fill="#5b9bf2"/><circle cx="1463" cy="77" r="7" fill="#818cf8"/><circle cx="1493" cy="77" r="7" fill="#c4b5fd"/>
<text x="819" y="158" text-anchor="middle" font-family="Georgia, 'Times New Roman', serif" font-size="82" font-weight="700" font-style="italic" fill="url(#name)">Uzair Ghole</text>
<text x="819" y="264" text-anchor="middle" font-family="Arial, Helvetica, sans-serif" font-size="28" font-weight="700" letter-spacing="4" fill="#243b61">TY BSc IT • DATA SCIENCE • PYTHON</text>
<text x="819" y="310" text-anchor="middle" font-family="Arial, Helvetica, sans-serif" font-size="22" letter-spacing="2" fill="#58749b">Data Analysis • Visualization • Machine Learning</text>
</svg>